<svg width="47" height="58" viewBox="0 0 47 58" fill="none" xmlns="http://www.w3.org/2000/svg">
<path d="M34.8128 18.5743C33.1126 21.2981 31.5727 25.2158 31.5912 28.7723C31.5995 30.3694 32.1494 32.129 32.9499 34.656C33.693 37.0022 34.6045 39.9013 34.6976 43.0716C34.8784 49.2268 33.1056 53.4814 30.252 57.773L25.1084 54.3417C27.4461 50.8259 28.654 47.815 28.52 43.2538C28.4558 41.0658 27.8247 38.9455 27.059 36.5279C26.3505 34.2913 25.4253 31.5427 25.4111 28.8045C25.3845 23.6902 27.4948 18.6213 29.5725 15.2927L34.8128 18.5743Z" fill="#0100F4"/>
<path d="M13.5964 9.90426C13.5964 7.85302 11.9362 6.19017 9.88829 6.19017C7.84036 6.19017 6.18018 7.85302 6.18018 9.90426V47.2929C6.18018 49.3441 7.84036 51.007 9.88829 51.007C11.9362 51.007 13.5964 49.3441 13.5964 47.2929V27.9795H19.7766V47.2929C19.7766 52.7628 15.3494 57.1971 9.88829 57.1971C4.42714 57.1971 0 52.7628 0 47.2929V9.90426C2.54859e-07 4.43429 4.42714 0 9.88829 0C15.3494 0 19.7766 4.43429 19.7766 9.90426V25.0083H13.5964V9.90426Z" fill="#35353C"/>
<path d="M40.8175 9.91974C40.8175 7.85995 39.1504 6.19017 37.0939 6.19017C35.176 6.19017 33.5949 7.64433 33.3925 9.50988C33.3981 9.64598 33.4012 9.78261 33.4012 9.91974V10.2757H27.1902V9.91974C27.1902 9.78261 27.193 9.64598 27.1986 9.50988C26.9963 7.64435 25.4154 6.19017 23.4975 6.19017C21.441 6.19017 19.7739 7.85995 19.7739 9.91974V22.1608H13.5938V9.91974C13.5938 4.44122 18.0278 0 23.4975 0C26.1301 0 28.5221 1.02862 30.2957 2.7065C32.0693 1.02862 34.4613 0 37.0939 0C42.5636 0 46.9976 4.44122 46.9976 9.91974V57.0733H40.8175V9.91974Z" fill="#35353C"/>
</svg>
