<svg width="191" height="282" viewBox="0 0 191 282" fill="none" xmlns="http://www.w3.org/2000/svg">
<path d="M140.134 75.1774C133.331 86.2074 127.213 101.901 127.288 116.205C127.322 122.748 129.578 129.937 132.807 140.117C135.815 149.597 139.48 161.244 139.855 173.968C140.576 198.499 133.568 215.504 122.229 232.632L102.255 219.329C111.572 205.244 116.405 193.043 115.865 174.674C115.602 165.758 113.027 157.132 109.932 147.375C107.059 138.32 103.346 127.298 103.289 116.331C103.183 96.0176 111.496 75.8525 119.784 62.4544L140.134 75.1774Z" stroke="#0100F4"/>
<path d="M67.5 113V191C67.5 206.188 55.1878 218.5 40 218.5C24.8122 218.5 12.5 206.188 12.5 191V40C12.5 24.8122 24.8122 12.5 40 12.5C55.1878 12.5 67.5 24.8122 67.5 40V101" stroke="#FAFAFA" stroke-width="25"/>
<path d="M67.5 89.5V40.0625C67.5 24.8402 79.8402 12.5 95.0625 12.5C110.285 12.5 122.625 24.8402 122.625 40.0625V41.5M177.625 230.5V40.0625C177.625 24.8402 165.285 12.5 150.062 12.5C134.84 12.5 122.5 24.8402 122.5 40.0625V41.5" stroke="#FAFAFA" stroke-width="25"/>
<mask id="mask0_926_194" style="mask-type:alpha" maskUnits="userSpaceOnUse" x="101" y="61" width="40" height="173">
<path d="M140.894 75.0171C134.017 86.0176 127.788 101.84 127.862 116.203C127.896 122.653 130.121 129.76 133.359 139.966C136.365 149.441 140.052 161.15 140.429 173.953C141.16 198.812 133.988 215.995 122.445 233.327L101.638 219.47C111.095 205.27 115.981 193.11 115.439 174.689C115.179 165.853 112.626 157.289 109.529 147.526C106.663 138.493 102.92 127.392 102.863 116.333C102.755 95.6783 111.292 75.2069 119.696 61.7638L140.894 75.0171Z" fill="#ED4C22"/>
</mask>
<g mask="url(#mask0_926_194)">
<rect width="77" height="31" transform="matrix(1 0 0 -1 81.5 244.5)" fill="#0100F4"/>
</g>
</svg>
